<?xml version="1.0" standalone="no"?>
<!DOCTYPE svg PUBLIC "-//W3C//DTD SVG 20010904//EN"
 "http://www.w3.org/TR/2001/REC-SVG-20010904/DTD/svg10.dtd">
<svg version="1.0" xmlns="http://www.w3.org/2000/svg"
 width="267.000000pt" height="285.000000pt" viewBox="0 0 267.000000 285.000000"
 preserveAspectRatio="xMidYMid meet">

<g transform="translate(0.000000,285.000000) scale(0.100000,-0.100000)"
fill="#000000" stroke="none">
<path d="M1945 2812 c-68 -33 -127 -92 -158 -161 -33 -70 -31 -188 4 -261 33
-69 87 -122 157 -157 77 -37 183 -38 264 -1 152 70 226 246 168 403 -29 78
-114 164 -185 188 -79 27 -178 23 -250 -11z"/>
<path d="M970 2799 c-237 -29 -451 -133 -553 -267 -89 -118 -125 -228 -135
-412 l-7 -125 -132 -3 -133 -3 0 -239 0 -240 135 0 135 0 0 -510 0 -510 -125
0 -125 0 0 -240 0 -240 605 0 605 0 0 240 0 239 -147 3 -148 3 -3 507 -2 508
405 0 405 0 0 -510 0 -510 -125 0 -125 0 0 -240 0 -240 580 0 580 0 0 240 0
239 -122 3 -123 3 -3 747 -2 748 -733 2 -732 3 1 77 c3 163 87 215 331 206
l113 -4 0 257 c0 164 -4 260 -10 264 -18 11 -331 14 -410 4z"/>
</g>
</svg>
