<?xml version="1.0" standalone="no"?>
<!DOCTYPE svg PUBLIC "-//W3C//DTD SVG 20010904//EN"
 "http://www.w3.org/TR/2001/REC-SVG-20010904/DTD/svg10.dtd">
<svg version="1.0" xmlns="http://www.w3.org/2000/svg"
 width="512.000000pt" height="512.000000pt" viewBox="0 0 512.000000 512.000000"
 preserveAspectRatio="xMidYMid meet">

<g transform="translate(0.000000,512.000000) scale(0.100000,-0.100000)"
fill="#000000" stroke="none">
<path d="M1830 3103 c0 -551 -3 -709 -14 -748 -36 -136 -132 -250 -263 -313
-71 -33 -87 -37 -178 -40 -82 -3 -111 0 -163 17 -152 52 -261 160 -311 309
-20 60 -21 81 -21 762 l0 700 -245 0 -245 0 0 -712 c1 -555 4 -730 14 -788 56
-306 252 -572 526 -710 484 -243 1066 -55 1312 426 84 164 108 268 117 504 l6
165 44 -85 c61 -117 161 -286 241 -405 l68 -101 -158 -729 c-86 -402 -155
-733 -153 -737 6 -11 501 -10 507 1 3 4 54 247 112 539 l107 532 31 -20 c281
-173 665 -226 961 -133 438 138 726 562 702 1032 -22 439 -321 804 -756 923
-115 32 -372 32 -491 -1 -328 -89 -576 -333 -705 -695 l-32 -88 -68 113 c-151
251 -294 558 -387 832 l-50 147 -254 0 -254 0 0 -697z m2090 -103 c191 -30
366 -192 409 -380 13 -58 13 -162 0 -220 -39 -168 -189 -328 -357 -380 -136
-42 -328 -17 -497 64 -106 52 -219 132 -212 150 3 7 17 62 31 122 56 233 68
272 111 360 74 152 186 248 328 279 77 17 105 17 187 5z"/>
</g>
</svg>
